<svg xmlns="http://www.w3.org/2000/svg" width="100" height="100" fill="none"><path fill="#1A4F8E" d="M70.833 75a8.333 8.333 0 1 1-8.333 8.333A8.305 8.305 0 0 1 70.833 75M4.167 8.333h13.625l3.916 8.334h61.625a4.167 4.167 0 0 1 4.167 4.166c0 .709-.208 1.417-.5 2.084L72.083 49.875c-1.416 2.542-4.166 4.292-7.291 4.292H33.75L30 60.958l-.125.5a1.04 1.04 0 0 0 1.042 1.042h48.25v8.333h-50a8.333 8.333 0 0 1-8.334-8.333c0-1.458.375-2.833 1-4L27.5 48.292l-15-31.625H4.167zm25 66.667a8.333 8.333 0 1 1-8.334 8.333A8.305 8.305 0 0 1 29.167 75m37.5-29.167L78.25 25H25.583l9.834 20.833z"/></svg>