<svg xmlns="http://www.w3.org/2000/svg" width="100" height="100" fill="none"><path fill="#1A4F8E" d="M58.333 62.5A8.305 8.305 0 0 1 50 70.833a8.333 8.333 0 0 1-8.333-8.333A8.305 8.305 0 0 1 50 54.167a8.333 8.333 0 0 1 8.333 8.333m-3.791 20.833c.5 3 1.541 5.792 3 8.334H25a8.333 8.333 0 0 1-8.333-8.334V41.667A8.304 8.304 0 0 1 25 33.333h4.166V25C29.167 13.5 38.5 4.167 50 4.167S70.833 13.5 70.833 25v8.333H75a8.333 8.333 0 0 1 8.333 8.334v12.875c-1.375-.209-2.75-.375-4.166-.375s-2.792.166-4.167.375V41.667H25v41.666zm-17.042-50h25V25c0-6.917-5.584-12.5-12.5-12.5S37.5 18.083 37.5 25zM88.917 66 73.958 80.958l-6.625-6.625-4.833 4.834 11.458 12.5L93.75 71.875z"/></svg>