<svg xmlns="http://www.w3.org/2000/svg" width="100" height="100" fill="none"><path fill="#1A4F8E" d="M8.333 12.5V8.333A4.167 4.167 0 0 0 4.167 12.5zm45.834 0h4.166a4.167 4.167 0 0 0-4.166-4.167zm0 25v-4.167A4.167 4.167 0 0 0 50 37.5zM8.332 16.667h45.834V8.333H8.332zM50 12.5v66.667h8.333V12.5zM12.5 70.833V12.5H4.167v58.333zm41.667-29.166H75v-8.334H54.167zm33.333 12.5v16.666h8.333V54.167zm-29.167 25V37.5H50v41.667zm19.613 2.945a4.167 4.167 0 0 1-5.892 0l-5.892 5.892a12.5 12.5 0 0 0 17.675 0zm-5.892-5.891a4.166 4.166 0 0 1 5.892 0l5.891-5.892a12.5 12.5 0 0 0-17.675 0zm-44.108 5.891a4.167 4.167 0 0 1-5.892 0l-5.892 5.892a12.5 12.5 0 0 0 17.675 0zm-5.892-5.891a4.166 4.166 0 0 1 5.892 0l5.891-5.892a12.5 12.5 0 0 0-17.675 0zm55.892 0a4.13 4.13 0 0 1 1.22 2.946H87.5c0-3.192-1.221-6.4-3.663-8.838zm1.22 2.946c0 1.105-.439 2.164-1.22 2.945l5.891 5.892a12.5 12.5 0 0 0 3.663-8.837zM66.667 75h-12.5v8.333h12.5zm5.388 7.112a4.17 4.17 0 0 1-1.22-2.945H62.5c0 3.191 1.22 6.4 3.662 8.837zm-1.22-2.945c0-1.105.438-2.165 1.22-2.946l-5.892-5.892a12.5 12.5 0 0 0-3.662 8.838zm-48.78 2.945a4.17 4.17 0 0 1-1.22-2.945H12.5c0 3.191 1.22 6.4 3.662 8.837zm-1.22-2.945c0-1.105.439-2.165 1.22-2.946l-5.892-5.892a12.5 12.5 0 0 0-3.662 8.838zM54.165 75H33.334v8.333h20.834zm-26.22 1.22a4.13 4.13 0 0 1 1.22 2.947H37.5c0-3.192-1.221-6.4-3.663-8.838zm1.22 2.947c0 1.105-.439 2.164-1.22 2.945l5.891 5.892a12.5 12.5 0 0 0 3.663-8.837zM87.5 70.833A4.166 4.166 0 0 1 83.333 75v8.333a12.5 12.5 0 0 0 12.5-12.5zM75 41.667a12.5 12.5 0 0 1 12.5 12.5h8.333A20.833 20.833 0 0 0 75 33.333zM4.167 70.833a12.5 12.5 0 0 0 12.5 12.5V75a4.167 4.167 0 0 1-4.167-4.167z"/></svg>